<svg  xmlns="http://www.w3.org/2000/svg"  width="24"  height="24"  viewBox="0 0 24 24"  fill="none"  stroke="currentColor"  stroke-width="2"  stroke-linecap="round"  stroke-linejoin="round"  class="icon icon-tabler icons-tabler-outline icon-tabler-brand-hugging-face"><path stroke="none" d="M0 0h24v24H0z" fill="none"/><path d="M20 11a8 8 0 1 0 -16 0a8 8 0 0 0 16 0z" /><path d="M9 10h.01" /><path d="M15 10h.01" /><path d="M8.5 13c.9 1.4 2 2.1 3.5 2.1s2.6 -.7 3.5 -2.1" /><path d="M5 13c-1.6 -.4 -2.9 .5 -2.5 2.1c.3 1.1 1.4 1.6 2.5 1.3" /><path d="M19 13c1.6 -.4 2.9 .5 2.5 2.1c-.3 1.1 -1.4 1.6 -2.5 1.3" /></svg>